<svg width="804" height="105" viewBox="0 0 804 105" fill="none" xmlns="http://www.w3.org/2000/svg">
<path d="M218.578 63.768C214.055 63.768 210.172 62.808 206.93 60.888C203.687 58.9253 201.191 56.216 199.442 52.76C197.692 49.2613 196.818 45.2293 196.818 40.664C196.818 36.0987 197.692 32.0667 199.442 28.568C201.191 25.0693 203.687 22.3387 206.93 20.376C210.172 18.4133 214.055 17.432 218.578 17.432C223.954 17.432 228.348 18.776 231.762 21.464C235.218 24.1093 237.372 27.8427 238.226 32.664H229.201C228.647 30.232 227.452 28.3333 225.618 26.968C223.826 25.56 221.436 24.856 218.45 24.856C214.311 24.856 211.068 26.264 208.722 29.08C206.375 31.896 205.202 35.7573 205.202 40.664C205.202 45.5707 206.375 49.432 208.722 52.248C211.068 55.0213 214.311 56.408 218.45 56.408C221.436 56.408 223.826 55.768 225.618 54.488C227.452 53.1653 228.647 51.352 229.201 49.048H238.226C237.372 53.656 235.218 57.2613 231.762 59.864C228.348 62.4667 223.954 63.768 218.578 63.768ZM266.469 63.768C261.989 63.768 258.064 62.7867 254.693 60.824C251.365 58.8613 248.741 56.152 246.821 52.696C244.944 49.1973 244.005 45.1653 244.005 40.6C244.005 36.0347 244.944 32.024 246.821 28.568C248.741 25.0693 251.365 22.3387 254.693 20.376C258.064 18.4133 261.989 17.432 266.469 17.432C270.906 17.432 274.81 18.4133 278.181 20.376C281.552 22.3387 284.176 25.0693 286.053 28.568C287.93 32.024 288.869 36.0347 288.869 40.6C288.869 45.1653 287.93 49.1973 286.053 52.696C284.176 56.152 281.552 58.8613 278.181 60.824C274.81 62.7867 270.906 63.768 266.469 63.768ZM266.469 56.408C270.736 56.408 274.128 55 276.645 52.184C279.205 49.368 280.485 45.5067 280.485 40.6C280.485 35.6933 279.205 31.832 276.645 29.016C274.128 26.2 270.736 24.792 266.469 24.792C262.202 24.792 258.789 26.2 256.229 29.016C253.669 31.832 252.389 35.6933 252.389 40.6C252.389 45.5067 253.669 49.368 256.229 52.184C258.789 55 262.202 56.408 266.469 56.408ZM296.102 63V18.2H304.294L325.35 49.752V18.2H333.542V63H325.35L304.294 31.512V63H296.102ZM352.659 63V24.792H339.603V18.2H373.971V24.792H360.851V63H352.659ZM372.41 63L388.794 18.2H398.01L414.394 63H405.69L402.106 52.632H384.634L380.986 63H372.41ZM386.874 46.232H399.866L393.338 27.608L386.874 46.232ZM437.89 63.768C433.367 63.768 429.485 62.808 426.242 60.888C422.999 58.9253 420.503 56.216 418.754 52.76C417.005 49.2613 416.13 45.2293 416.13 40.664C416.13 36.0987 417.005 32.0667 418.754 28.568C420.503 25.0693 422.999 22.3387 426.242 20.376C429.485 18.4133 433.367 17.432 437.89 17.432C443.266 17.432 447.661 18.776 451.074 21.464C454.53 24.1093 456.685 27.8427 457.538 32.664H448.514C447.959 30.232 446.765 28.3333 444.93 26.968C443.138 25.56 440.749 24.856 437.762 24.856C433.623 24.856 430.381 26.264 428.034 29.08C425.687 31.896 424.514 35.7573 424.514 40.664C424.514 45.5707 425.687 49.432 428.034 52.248C430.381 55.0213 433.623 56.408 437.762 56.408C440.749 56.408 443.138 55.768 444.93 54.488C446.765 53.1653 447.959 51.352 448.514 49.048H457.538C456.685 53.656 454.53 57.2613 451.074 59.864C447.661 62.4667 443.266 63.768 437.89 63.768ZM474.659 63V24.792H461.603V18.2H495.971V24.792H482.851V63H474.659ZM534.57 63.768C531.284 63.768 528.319 63.128 525.674 61.848C523.028 60.5253 520.916 58.5413 519.338 55.896C517.802 53.2507 517.034 49.9013 517.034 45.848V18.2H525.226V45.912C525.226 49.4107 526.058 52.0133 527.722 53.72C529.428 55.4267 531.775 56.28 534.762 56.28C537.706 56.28 540.031 55.4267 541.738 53.72C543.444 52.0133 544.298 49.4107 544.298 45.912V18.2H552.49V45.848C552.49 49.9013 551.679 53.2507 550.058 55.896C548.436 58.5413 546.26 60.5253 543.53 61.848C540.842 63.128 537.855 63.768 534.57 63.768ZM576.148 63.768C572.863 63.768 569.961 63.2133 567.444 62.104C564.927 60.952 562.943 59.3307 561.492 57.24C560.041 55.1067 559.295 52.5253 559.252 49.496H567.892C567.977 51.5867 568.724 53.3573 570.132 54.808C571.583 56.216 573.567 56.92 576.084 56.92C578.26 56.92 579.988 56.408 581.268 55.384C582.548 54.3173 583.188 52.9093 583.188 51.16C583.188 49.3253 582.612 47.896 581.46 46.872C580.351 45.848 578.857 45.016 576.98 44.376C575.103 43.736 573.097 43.0533 570.964 42.328C567.508 41.1333 564.863 39.5973 563.028 37.72C561.236 35.8427 560.34 33.3467 560.34 30.232C560.297 27.5867 560.916 25.3253 562.196 23.448C563.519 21.528 565.311 20.056 567.572 19.032C569.833 17.9653 572.436 17.432 575.38 17.432C578.367 17.432 580.991 17.9653 583.252 19.032C585.556 20.0987 587.348 21.592 588.628 23.512C589.951 25.432 590.655 27.7147 590.74 30.36H581.972C581.929 28.7813 581.311 27.3947 580.116 26.2C578.964 24.9627 577.343 24.344 575.252 24.344C573.46 24.3013 571.945 24.7493 570.708 25.688C569.513 26.584 568.916 27.9067 568.916 29.656C568.916 31.1493 569.385 32.344 570.324 33.24C571.263 34.0933 572.543 34.8187 574.164 35.416C575.785 36.0133 577.641 36.6533 579.732 37.336C581.951 38.104 583.977 39 585.812 40.024C587.647 41.048 589.119 42.4133 590.228 44.12C591.337 45.784 591.892 47.9387 591.892 50.584C591.892 52.9307 591.295 55.1067 590.1 57.112C588.905 59.1173 587.135 60.7387 584.788 61.976C582.441 63.1707 579.561 63.768 576.148 63.768Z" fill="#3E474F"/>
<path d="M602.368 63.448C600.874 63.448 599.637 62.9787 598.656 62.04C597.717 61.1013 597.248 59.9707 597.248 58.648C597.248 57.2827 597.717 56.1307 598.656 55.192C599.637 54.2533 600.874 53.784 602.368 53.784C603.861 53.784 605.077 54.2533 606.016 55.192C606.997 56.1307 607.488 57.2827 607.488 58.648C607.488 59.9707 606.997 61.1013 606.016 62.04C605.077 62.9787 603.861 63.448 602.368 63.448Z" fill="#F7931A"/>
<path d="M295.595 99.2223C294.644 99.2223 293.81 99.0556 293.094 98.7221C292.378 98.3886 291.816 97.9131 291.408 97.2956C291.013 96.678 290.809 95.9432 290.797 95.0909H292.872C292.884 95.7826 293.125 96.3693 293.594 96.8509C294.063 97.3326 294.724 97.5735 295.576 97.5735C296.33 97.5735 296.916 97.3944 297.336 97.0362C297.769 96.6657 297.985 96.1964 297.985 95.6282C297.985 95.1712 297.88 94.8007 297.67 94.5166C297.472 94.2326 297.194 93.9979 296.836 93.8126C296.49 93.6274 296.089 93.4606 295.632 93.3124C295.175 93.1642 294.693 93.0036 294.187 92.8307C293.187 92.4973 292.433 92.065 291.927 91.5339C291.433 91.0028 291.186 90.305 291.186 89.4404C291.173 88.7117 291.34 88.0756 291.686 87.5322C292.044 86.9888 292.538 86.5688 293.168 86.2724C293.81 85.9636 294.557 85.8093 295.41 85.8093C296.25 85.8093 296.984 85.9636 297.614 86.2724C298.257 86.5812 298.757 87.0135 299.115 87.5693C299.473 88.1127 299.658 88.7488 299.671 89.4775H297.596C297.596 89.144 297.509 88.8291 297.336 88.5326C297.164 88.2239 296.91 87.9707 296.577 87.7731C296.243 87.5754 295.836 87.4766 295.354 87.4766C294.737 87.4643 294.224 87.6187 293.816 87.9398C293.421 88.2609 293.224 88.7055 293.224 89.2737C293.224 89.7801 293.372 90.1691 293.668 90.4408C293.965 90.7126 294.372 90.9411 294.891 91.1263C295.41 91.2992 296.003 91.503 296.669 91.7377C297.312 91.9476 297.886 92.2008 298.392 92.4973C298.899 92.7937 299.3 93.1827 299.597 93.6644C299.905 94.1461 300.06 94.7575 300.06 95.4985C300.06 96.1531 299.893 96.7645 299.56 97.3326C299.226 97.8884 298.726 98.3454 298.059 98.7036C297.392 99.0494 296.571 99.2223 295.595 99.2223ZM305.986 99C305.085 99 304.368 98.7839 303.837 98.3516C303.306 97.9069 303.04 97.1227 303.04 95.9987V91.4598H301.466V89.8109H303.04L303.281 87.4766H305.004V89.8109H307.598V91.4598H305.004V95.9987C305.004 96.5051 305.109 96.8571 305.319 97.0547C305.542 97.24 305.918 97.3326 306.449 97.3326H307.505V99H305.986ZM312.735 99.2223C311.957 99.2223 311.315 99.0926 310.809 98.8333C310.302 98.5739 309.925 98.2342 309.678 97.8143C309.431 97.382 309.308 96.9127 309.308 96.4063C309.308 95.5171 309.654 94.8131 310.345 94.2943C311.037 93.7756 312.025 93.5162 313.31 93.5162H315.718V93.3495C315.718 92.6331 315.52 92.0959 315.125 91.7377C314.742 91.3795 314.242 91.2004 313.625 91.2004C313.081 91.2004 312.606 91.3363 312.198 91.608C311.803 91.8674 311.562 92.2564 311.475 92.7752H309.512C309.573 92.1082 309.796 91.5401 310.179 91.0707C310.574 90.5891 311.068 90.2247 311.661 89.9777C312.266 89.7183 312.927 89.5886 313.643 89.5886C314.928 89.5886 315.922 89.9283 316.626 90.6076C317.33 91.2745 317.682 92.1885 317.682 93.3495V99H315.977L315.811 97.4253C315.551 97.9316 315.175 98.3578 314.681 98.7036C314.186 99.0494 313.538 99.2223 312.735 99.2223ZM313.124 97.6291C313.655 97.6291 314.1 97.5055 314.458 97.2585C314.829 96.9992 315.113 96.6595 315.31 96.2396C315.52 95.8196 315.65 95.3565 315.699 94.8501H313.513C312.735 94.8501 312.179 94.986 311.846 95.2577C311.525 95.5294 311.364 95.8691 311.364 96.2766C311.364 96.6966 311.519 97.03 311.827 97.2771C312.149 97.5117 312.581 97.6291 313.124 97.6291ZM319.972 99V89.8109H321.732L321.898 91.5524C322.219 90.9472 322.664 90.4717 323.232 90.1259C323.813 89.7677 324.51 89.5886 325.326 89.5886V91.6451H324.788C324.245 91.6451 323.757 91.7377 323.325 91.9229C322.905 92.0959 322.565 92.3985 322.306 92.8307C322.059 93.2507 321.935 93.8373 321.935 94.5907V99H319.972ZM330.863 99C329.961 99 329.245 98.7839 328.714 98.3516C328.183 97.9069 327.917 97.1227 327.917 95.9987V91.4598H326.342V89.8109H327.917L328.158 87.4766H329.881V89.8109H332.475V91.4598H329.881V95.9987C329.881 96.5051 329.986 96.8571 330.196 97.0547C330.418 97.24 330.795 97.3326 331.326 97.3326H332.382V99H330.863ZM340.242 103.076L342.446 98.2404H341.909L338.278 89.8109H340.409L343.225 96.6101L346.17 89.8109H348.245L342.317 103.076H340.242ZM353.326 99.2223C352.449 99.2223 351.658 99.0247 350.954 98.6295C350.263 98.2219 349.713 97.6599 349.305 96.9436C348.898 96.2149 348.694 95.3688 348.694 94.4055C348.694 93.4421 348.898 92.6022 349.305 91.8859C349.725 91.1572 350.287 90.5952 350.991 90.2C351.695 89.7924 352.48 89.5886 353.344 89.5886C354.221 89.5886 355.005 89.7924 355.697 90.2C356.401 90.5952 356.957 91.1572 357.364 91.8859C357.784 92.6022 357.994 93.4421 357.994 94.4055C357.994 95.3688 357.784 96.2149 357.364 96.9436C356.957 97.6599 356.401 98.2219 355.697 98.6295C354.993 99.0247 354.202 99.2223 353.326 99.2223ZM353.326 97.5364C353.795 97.5364 354.227 97.4191 354.622 97.1844C355.03 96.9498 355.357 96.6039 355.604 96.1469C355.851 95.6776 355.975 95.0971 355.975 94.4055C355.975 93.7138 355.851 93.1395 355.604 92.6825C355.37 92.2132 355.048 91.8612 354.641 91.6265C354.246 91.3919 353.813 91.2745 353.344 91.2745C352.875 91.2745 352.436 91.3919 352.029 91.6265C351.633 91.8612 351.312 92.2132 351.065 92.6825C350.818 93.1395 350.695 93.7138 350.695 94.4055C350.695 95.0971 350.818 95.6776 351.065 96.1469C351.312 96.6039 351.633 96.9498 352.029 97.1844C352.424 97.4191 352.856 97.5364 353.326 97.5364ZM363.508 99.2223C362.397 99.2223 361.52 98.8765 360.877 98.1848C360.248 97.4932 359.933 96.4619 359.933 95.0909V89.8109H361.896V94.8872C361.896 96.6657 362.625 97.5549 364.083 97.5549C364.811 97.5549 365.41 97.2956 365.88 96.7768C366.349 96.2581 366.584 95.5171 366.584 94.5537V89.8109H368.547V99H366.806L366.658 97.3882C366.374 97.9564 365.954 98.4072 365.398 98.7406C364.854 99.0618 364.225 99.2223 363.508 99.2223ZM371.046 99V89.8109H372.806L372.972 91.5524C373.293 90.9472 373.738 90.4717 374.306 90.1259C374.887 89.7677 375.584 89.5886 376.4 89.5886V91.6451H375.862C375.319 91.6451 374.831 91.7377 374.399 91.9229C373.979 92.0959 373.639 92.3985 373.38 92.8307C373.133 93.2507 373.009 93.8373 373.009 94.5907V99H371.046ZM383.918 88.0695C383.548 88.0695 383.239 87.9583 382.992 87.736C382.757 87.5013 382.64 87.2111 382.64 86.8653C382.64 86.5194 382.757 86.2354 382.992 86.0131C383.239 85.7784 383.548 85.6611 383.918 85.6611C384.289 85.6611 384.591 85.7784 384.826 86.0131C385.073 86.2354 385.197 86.5194 385.197 86.8653C385.197 87.2111 385.073 87.5013 384.826 87.736C384.591 87.9583 384.289 88.0695 383.918 88.0695ZM380.991 103.076V101.408H381.714C382.146 101.408 382.455 101.316 382.64 101.131C382.825 100.958 382.918 100.661 382.918 100.241V89.8109H384.882V100.26C384.882 101.26 384.628 101.977 384.122 102.409C383.616 102.853 382.912 103.076 382.01 103.076H380.991ZM391.771 99.2223C390.894 99.2223 390.104 99.0247 389.4 98.6295C388.708 98.2219 388.159 97.6599 387.751 96.9436C387.343 96.2149 387.14 95.3688 387.14 94.4055C387.14 93.4421 387.343 92.6022 387.751 91.8859C388.171 91.1572 388.733 90.5952 389.437 90.2C390.141 89.7924 390.925 89.5886 391.79 89.5886C392.667 89.5886 393.451 89.7924 394.143 90.2C394.847 90.5952 395.402 91.1572 395.81 91.8859C396.23 92.6022 396.44 93.4421 396.44 94.4055C396.44 95.3688 396.23 96.2149 395.81 96.9436C395.402 97.6599 394.847 98.2219 394.143 98.6295C393.439 99.0247 392.648 99.2223 391.771 99.2223ZM391.771 97.5364C392.241 97.5364 392.673 97.4191 393.068 97.1844C393.476 96.9498 393.803 96.6039 394.05 96.1469C394.297 95.6776 394.421 95.0971 394.421 94.4055C394.421 93.7138 394.297 93.1395 394.05 92.6825C393.815 92.2132 393.494 91.8612 393.087 91.6265C392.691 91.3919 392.259 91.2745 391.79 91.2745C391.32 91.2745 390.882 91.3919 390.474 91.6265C390.079 91.8612 389.758 92.2132 389.511 92.6825C389.264 93.1395 389.141 93.7138 389.141 94.4055C389.141 95.0971 389.264 95.6776 389.511 96.1469C389.758 96.6039 390.079 96.9498 390.474 97.1844C390.87 97.4191 391.302 97.5364 391.771 97.5364ZM401.954 99.2223C400.842 99.2223 399.965 98.8765 399.323 98.1848C398.693 97.4932 398.378 96.4619 398.378 95.0909V89.8109H400.342V94.8872C400.342 96.6657 401.071 97.5549 402.528 97.5549C403.257 97.5549 403.856 97.2956 404.325 96.7768C404.795 96.2581 405.029 95.5171 405.029 94.5537V89.8109H406.993V99H405.252L405.103 97.3882C404.819 97.9564 404.399 98.4072 403.844 98.7406C403.3 99.0618 402.67 99.2223 401.954 99.2223ZM409.491 99V89.8109H411.251L411.418 91.5524C411.739 90.9472 412.184 90.4717 412.752 90.1259C413.332 89.7677 414.03 89.5886 414.845 89.5886V91.6451H414.308C413.765 91.6451 413.277 91.7377 412.845 91.9229C412.425 92.0959 412.085 92.3985 411.826 92.8307C411.579 93.2507 411.455 93.8373 411.455 94.5907V99H409.491ZM416.529 99V89.8109H418.271L418.419 91.4227C418.703 90.8546 419.117 90.41 419.66 90.0888C420.216 89.7554 420.852 89.5886 421.568 89.5886C422.68 89.5886 423.551 89.9345 424.18 90.6261C424.823 91.3178 425.144 92.3491 425.144 93.72V99H423.199V93.9238C423.199 92.1453 422.47 91.256 421.012 91.256C420.284 91.256 419.679 91.5154 419.197 92.0341C418.728 92.5528 418.493 93.2939 418.493 94.2573V99H416.529ZM431.755 99.2223C430.853 99.2223 430.05 99.0247 429.346 98.6295C428.655 98.2219 428.111 97.6599 427.716 96.9436C427.321 96.2272 427.123 95.3935 427.123 94.4425C427.123 93.4792 427.315 92.6331 427.698 91.9044C428.093 91.1757 428.636 90.6076 429.328 90.2C430.032 89.7924 430.847 89.5886 431.773 89.5886C432.675 89.5886 433.459 89.7924 434.126 90.2C434.793 90.5952 435.312 91.1263 435.682 91.7933C436.053 92.4602 436.238 93.1951 436.238 93.9979C436.238 94.1214 436.232 94.2573 436.22 94.4055C436.22 94.5413 436.213 94.6957 436.201 94.8686H429.05C429.112 95.7579 429.402 96.4372 429.921 96.9065C430.452 97.3635 431.063 97.592 431.755 97.592C432.311 97.592 432.774 97.4685 433.144 97.2215C433.527 96.9621 433.811 96.6163 433.997 96.184H435.96C435.713 97.0486 435.219 97.7711 434.478 98.3516C433.749 98.9321 432.842 99.2223 431.755 99.2223ZM431.755 91.2004C431.1 91.2004 430.52 91.398 430.013 91.7933C429.507 92.1761 429.198 92.7566 429.087 93.5347H434.274C434.237 92.8184 433.984 92.2502 433.515 91.8303C433.045 91.4104 432.459 91.2004 431.755 91.2004ZM438.934 103.076L441.139 98.2404H440.602L436.97 89.8109H439.101L441.917 96.6101L444.863 89.8109H446.938L441.009 103.076H438.934ZM455.054 99L452.349 89.8109H454.313L456.091 96.7398L458.092 89.8109H460.278L462.279 96.7398L464.058 89.8109H466.022L463.317 99H461.297L459.185 91.7747L457.073 99H455.054ZM468.751 88.0695C468.38 88.0695 468.072 87.9583 467.825 87.736C467.59 87.5013 467.473 87.2111 467.473 86.8653C467.473 86.5194 467.59 86.2354 467.825 86.0131C468.072 85.7784 468.38 85.6611 468.751 85.6611C469.121 85.6611 469.424 85.7784 469.659 86.0131C469.906 86.2354 470.029 86.5194 470.029 86.8653C470.029 87.2111 469.906 87.5013 469.659 87.736C469.424 87.9583 469.121 88.0695 468.751 88.0695ZM467.769 99V89.8109H469.733V99H467.769ZM476.179 99C475.277 99 474.561 98.7839 474.03 98.3516C473.498 97.9069 473.233 97.1227 473.233 95.9987V91.4598H471.658V89.8109H473.233L473.474 87.4766H475.197V89.8109H477.79V91.4598H475.197V95.9987C475.197 96.5051 475.302 96.8571 475.512 97.0547C475.734 97.24 476.111 97.3326 476.642 97.3326H477.698V99H476.179ZM479.815 99V85.6611H481.779V91.2931C482.088 90.762 482.514 90.3482 483.057 90.0518C483.613 89.743 484.225 89.5886 484.891 89.5886C485.991 89.5886 486.855 89.9345 487.485 90.6261C488.115 91.3178 488.43 92.3491 488.43 93.72V99H486.485V93.9238C486.485 92.1453 485.775 91.256 484.354 91.256C483.613 91.256 482.996 91.5154 482.502 92.0341C482.02 92.5528 481.779 93.2939 481.779 94.2573V99H479.815ZM498.801 99.2223C497.689 99.2223 496.812 98.8765 496.17 98.1848C495.54 97.4932 495.225 96.4619 495.225 95.0909V89.8109H497.189V94.8872C497.189 96.6657 497.918 97.5549 499.375 97.5549C500.104 97.5549 500.703 97.2956 501.172 96.7768C501.642 96.2581 501.876 95.5171 501.876 94.5537V89.8109H503.84V99H502.099L501.95 97.3882C501.666 97.9564 501.246 98.4072 500.691 98.7406C500.147 99.0618 499.517 99.2223 498.801 99.2223ZM510.007 99.2223C508.846 99.2223 507.888 98.9382 507.135 98.3701C506.382 97.802 505.949 97.0486 505.838 96.1099H507.82C507.919 96.5298 508.154 96.8942 508.524 97.2029C508.895 97.4994 509.383 97.6476 509.988 97.6476C510.581 97.6476 511.013 97.5241 511.285 97.2771C511.557 97.03 511.692 96.746 511.692 96.4248C511.692 95.9555 511.501 95.6406 511.118 95.48C510.748 95.3071 510.229 95.1527 509.562 95.0168C509.043 94.9057 508.524 94.7575 508.006 94.5722C507.499 94.3869 507.073 94.1276 506.727 93.7941C506.394 93.4483 506.227 92.9851 506.227 92.4046C506.227 91.6018 506.536 90.9349 507.153 90.4038C507.771 89.8604 508.636 89.5886 509.747 89.5886C510.772 89.5886 511.6 89.8356 512.23 90.3297C512.872 90.8237 513.249 91.5215 513.36 92.4232H511.47C511.408 92.0279 511.223 91.7192 510.914 91.4968C510.618 91.2745 510.216 91.1634 509.71 91.1634C509.216 91.1634 508.833 91.2684 508.561 91.4783C508.29 91.6759 508.154 91.9353 508.154 92.2564C508.154 92.5775 508.339 92.8307 508.71 93.016C509.093 93.2013 509.593 93.368 510.21 93.5162C510.828 93.6521 511.396 93.8126 511.915 93.9979C512.446 94.1708 512.872 94.4302 513.193 94.776C513.514 95.1218 513.675 95.6282 513.675 96.2952C513.687 97.135 513.36 97.8328 512.693 98.3886C512.038 98.9444 511.143 99.2223 510.007 99.2223Z" fill="#3E474F" fill-opacity="0.46"/>
</svg>
